{
date = "2013-12-02 21:40:35 +0000";
designer = "Shinji Pons";
designerURL = www.shinjipons.com;
familyName = "Modulo 36";
fontMaster = (
{
alignmentZones = (
"{1280, 10}",
"{0, -10}"
);
ascender = 1280;
capHeight = 1280;
customParameters = (
{
name = familyName;
value = "Modulo 06";
}
);
descender = 0;
guideLines = (
{
position = "{1534, 460}";
},
{
angle = 90;
position = "{900, -124}";
},
{
angle = 90;
position = "{540, -117}";
},
{
position = "{1533, 820}";
},
{
angle = 90;
position = "{80, -86}";
},
{
angle = 90;
position = "{1000, -69}";
},
{
position = "{1520, 920}";
},
{
position = "{1510, 360}";
},
{
angle = 90;
position = "{1360, -75}";
},
{
angle = 90;
position = "{440, -90}";
},
{
angle = 90;
position = "{260, -86}";
},
{
angle = 90;
position = "{720, -117}";
},
{
angle = 90;
position = "{1180, -69}";
},
{
position = "{1510, 180}";
},
{
position = "{1534, 640}";
},
{
position = "{1520, 1100}";
}
);
horizontalStems = (
360
);
id = "940E2F63-624A-4C3D-A909-721782B4CF41";
verticalStems = (
360
);
weightValue = 6;
widthValue = 128;
xHeight = 1280;
}
);
glyphs = (
{
glyphname = A;
lastChange = "2014-01-05 16:06:22 +0000";
layers = (
{
guideLines = (
{
position = "{1110, 580}";
showMeasurement = 1;
},
{
angle = 90;
position = "{492, 1169}";
showMeasurement = 1;
}
);
layerId = "940E2F63-624A-4C3D-A909-721782B4CF41";
name = Regular;
paths = (
{
closed = 1;
nodes = (
"260 1280 LINE SMOOTH",
"160.588 1280 OFFCURVE",
"80 1199.41 OFFCURVE",
"80 1100 CURVE SMOOTH",
"80 1000.59 OFFCURVE",
"160.588 920 OFFCURVE",
"260 920 CURVE SMOOTH",
"1000 920 LINE",
"1000 360 LINE",
"440 360 LINE",
"440 460 LINE",
"720 460 LINE SMOOTH",
"819.412 460 OFFCURVE",
"900 540.588 OFFCURVE",
"900 640 CURVE SMOOTH",
"900 739.412 OFFCURVE",
"819.412 820 OFFCURVE",
"720 820 CURVE SMOOTH",
"260 820 LINE SMOOTH",
"160.588 820 OFFCURVE",
"80 739.412 OFFCURVE",
"80 640 CURVE SMOOTH",
"80 180 LINE SMOOTH",
"80 80.588 OFFCURVE",
"160.588 0 OFFCURVE",
"260 0 CURVE SMOOTH",
"1180 0 LINE SMOOTH",
"1279.41 0 OFFCURVE",
"1360 80.588 OFFCURVE",
"1360 180 CURVE SMOOTH",
"1360 1100 LINE SMOOTH",
"1360 1199.41 OFFCURVE",
"1279.41 1280 OFFCURVE",
"1180 1280 CURVE SMOOTH"
);
}
);
width = 1440;
}
);
unicode = 0041;
},
{
glyphname = B;
lastChange = "2014-01-05 16:06:22 +0000";
layers = (
{
layerId = "940E2F63-624A-4C3D-A909-721782B4CF41";
name = Regular;
paths = (
{
closed = 1;
nodes = (
"260 1280 LINE SMOOTH",
"160.588 1280 OFFCURVE",
"80 1199.41 OFFCURVE",
"80 1100 CURVE SMOOTH",
"80 180 LINE SMOOTH",
"80 80.588 OFFCURVE",
"160.588 0 OFFCURVE",
"260 0 CURVE SMOOTH",
"359.412 0 OFFCURVE",
"440 80.588 OFFCURVE",
"440 180 CURVE SMOOTH",
"440 920 LINE",
"1000 920 LINE",
"1000 820 LINE",
"720 820 LINE SMOOTH",
"620.588 820 OFFCURVE",
"540 739.412 OFFCURVE",
"540 640 CURVE SMOOTH",
"540 540.588 OFFCURVE",
"620.588 460 OFFCURVE",
"720 460 CURVE SMOOTH",
"1000 460 LINE",
"1000 360 LINE",
"720 360 LINE SMOOTH",
"620.588 360 OFFCURVE",
"540 279.412 OFFCURVE",
"540 180 CURVE SMOOTH",
"540 80.588 OFFCURVE",
"620.588 0 OFFCURVE",
"720 0 CURVE SMOOTH",
"1180 0 LINE SMOOTH",
"1279.41 0 OFFCURVE",
"1360 80.588 OFFCURVE",
"1360 180 CURVE SMOOTH",
"1360 1100 LINE SMOOTH",
"1360 1199.41 OFFCURVE",
"1279.41 1280 OFFCURVE",
"1180 1280 CURVE SMOOTH"
);
}
);
width = 1440;
}
);
unicode = 0042;
},
{
glyphname = C;
lastChange = "2014-01-05 16:06:22 +0000";
layers = (
{
layerId = "940E2F63-624A-4C3D-A909-721782B4CF41";
name = Regular;
paths = (
{
closed = 1;
nodes = (
"260 1280 LINE SMOOTH",
"160.588 1280 OFFCURVE",
"80 1199.41 OFFCURVE",
"80 1100 CURVE SMOOTH",
"80 180 LINE SMOOTH",
"80 80.588 OFFCURVE",
"160.588 0 OFFCURVE",
"260 0 CURVE SMOOTH",
"1180 0 LINE SMOOTH",
"1279.41 0 OFFCURVE",
"1360 80.588 OFFCURVE",
"1360 180 CURVE SMOOTH",
"1360 279.412 OFFCURVE",
"1279.41 360 OFFCURVE",
"1180 360 CURVE SMOOTH",
"440 360 LINE",
"440 920 LINE",
"1180 920 LINE SMOOTH",
"1279.41 920 OFFCURVE",
"1360 1000.59 OFFCURVE",
"1360 1100 CURVE SMOOTH",
"1360 1199.41 OFFCURVE",
"1279.41 1280 OFFCURVE",
"1180 1280 CURVE SMOOTH"
);
}
);
width = 1440;
}
);
unicode = 0043;
},
{
glyphname = D;
lastChange = "2014-01-05 16:06:22 +0000";
layers = (
{
layerId = "940E2F63-624A-4C3D-A909-721782B4CF41";
name = Regular;
paths = (
{
closed = 1;
nodes = (
"260 1280 LINE SMOOTH",
"160.588 1280 OFFCURVE",
"80 1199.41 OFFCURVE",
"80 1100 CURVE SMOOTH",
"80 1000.59 OFFCURVE",
"160.588 920 OFFCURVE",
"260 920 CURVE SMOOTH",
"1000 920 LINE",
"1000 360 LINE",
"440 360 LINE",
"440 640 LINE SMOOTH",
"440 739.412 OFFCURVE",
"359.412 820 OFFCURVE",
"260 820 CURVE SMOOTH",
"160.588 820 OFFCURVE",
"80 739.412 OFFCURVE",
"80 640 CURVE SMOOTH",
"80 180 LINE SMOOTH",
"80 80.588 OFFCURVE",
"160.588 0 OFFCURVE",
"260 0 CURVE SMOOTH",
"1180 0 LINE SMOOTH",
"1279.41 0 OFFCURVE",
"1360 80.588 OFFCURVE",
"1360 180 CURVE SMOOTH",
"1360 1100 LINE SMOOTH",
"1360 1199.41 OFFCURVE",
"1279.41 1280 OFFCURVE",
"1180 1280 CURVE SMOOTH"
);
}
);
width = 1440;
}
);
unicode = 0044;
},
{
glyphname = E;
lastChange = "2014-01-05 16:06:22 +0000";
layers = (
{
layerId = "940E2F63-624A-4C3D-A909-721782B4CF41";
name = Regular;
paths = (
{
closed = 1;
nodes = (
"720 1280 LINE SMOOTH",
"620.588 1280 OFFCURVE",
"540 1199.41 OFFCURVE",
"540 1100 CURVE SMOOTH",
"540 1000.59 OFFCURVE",
"620.588 920 OFFCURVE",
"720 920 CURVE SMOOTH",
"1000 920 LINE",
"1000 820 LINE",
"440 820 LINE",
"440 1100 LINE SMOOTH",
"440 1199.41 OFFCURVE",
"359.412 1280 OFFCURVE",
"260 1280 CURVE SMOOTH",
"160.588 1280 OFFCURVE",
"80 1199.41 OFFCURVE",
"80 1100 CURVE SMOOTH",
"80 180 LINE SMOOTH",
"80 80.588 OFFCURVE",
"160.588 0 OFFCURVE",
"260 0 CURVE SMOOTH",
"1180 0 LINE SMOOTH",
"1279.41 0 OFFCURVE",
"1360 80.588 OFFCURVE",
"1360 180 CURVE SMOOTH",
"1360 279.412 OFFCURVE",
"1279.41 360 OFFCURVE",
"1180 360 CURVE SMOOTH",
"440 360 LINE",
"440 460 LINE",
"1180 460 LINE SMOOTH",
"1279.41 460 OFFCURVE",
"1360 540.588 OFFCURVE",
"1360 640 CURVE SMOOTH",
"1360 1100 LINE SMOOTH",
"1360 1199.41 OFFCURVE",
"1279.41 1280 OFFCURVE",
"1180 1280 CURVE SMOOTH"
);
}
);
width = 1440;
}
);
unicode = 0045;
},
{
glyphname = F;
lastChange = "2014-01-05 16:06:22 +0000";
layers = (
{
layerId = "940E2F63-624A-4C3D-A909-721782B4CF41";
name = Regular;
paths = (
{
closed = 1;
nodes = (
"260 1280 LINE SMOOTH",
"160.588 1280 OFFCURVE",
"80 1199.41 OFFCURVE",
"80 1100 CURVE SMOOTH",
"80 180 LINE SMOOTH",
"80 80.588 OFFCURVE",
"160.588 0 OFFCURVE",
"260 0 CURVE SMOOTH",
"359.412 0 OFFCURVE",
"440 80.588 OFFCURVE",
"440 180 CURVE SMOOTH",
"440 460 LINE",
"1180 460 LINE SMOOTH",
"1279.41 460 OFFCURVE",
"1360 540.588 OFFCURVE",
"1360 640 CURVE SMOOTH",
"1360 739.412 OFFCURVE",
"1279.41 820 OFFCURVE",
"1180 820 CURVE SMOOTH",
"440 820 LINE",
"440 920 LINE",
"1180 920 LINE SMOOTH",
"1279.41 920 OFFCURVE",
"1360 1000.59 OFFCURVE",
"1360 1100 CURVE SMOOTH",
"1360 1199.41 OFFCURVE",
"1279.41 1280 OFFCURVE",
"1180 1280 CURVE SMOOTH"
);
}
);
width = 1440;
}
);
unicode = 0046;
},
{
glyphname = H;
lastChange = "2014-01-05 16:06:22 +0000";
layers = (
{
layerId = "940E2F63-624A-4C3D-A909-721782B4CF41";
name = Regular;
paths = (
{
closed = 1;
nodes = (
"1080.59 1280 OFFCURVE",
"1000 1199.41 OFFCURVE",
"1000 1100 CURVE SMOOTH",
"1000 820 LINE",
"440 820 LINE",
"440 1100 LINE SMOOTH",
"440 1199.41 OFFCURVE",
"359.412 1280 OFFCURVE",
"260 1280 CURVE SMOOTH",
"160.588 1280 OFFCURVE",
"80 1199.41 OFFCURVE",
"80 1100 CURVE SMOOTH",
"80 180 LINE SMOOTH",
"80 80.588 OFFCURVE",
"160.588 0 OFFCURVE",
"260 0 CURVE SMOOTH",
"359.412 0 OFFCURVE",
"440 80.588 OFFCURVE",
"440 180 CURVE SMOOTH",
"440 460 LINE",
"1000 460 LINE",
"1000 180 LINE SMOOTH",
"1000 80.588 OFFCURVE",
"1080.59 0 OFFCURVE",
"1180 0 CURVE SMOOTH",
"1279.41 0 OFFCURVE",
"1360 80.588 OFFCURVE",
"1360 180 CURVE SMOOTH",
"1360 1100 LINE SMOOTH",
"1360 1199.41 OFFCURVE",
"1279.41 1280 OFFCURVE",
"1180 1280 CURVE SMOOTH"
);
}
);
width = 1440;
}
);
unicode = 0048;
},
{
glyphname = J;
lastChange = "2014-01-05 16:06:22 +0000";
layers = (
{
layerId = "940E2F63-624A-4C3D-A909-721782B4CF41";
name = Regular;
paths = (
{
closed = 1;
nodes = (
"720 1280 LINE SMOOTH",
"620.588 1280 OFFCURVE",
"540 1199.41 OFFCURVE",
"540 1100 CURVE SMOOTH",
"540 1000.59 OFFCURVE",
"620.588 920 OFFCURVE",
"720 920 CURVE SMOOTH",
"1000 920 LINE",
"1000 360 LINE",
"260 360 LINE SMOOTH",
"160.588 360 OFFCURVE",
"80 279.412 OFFCURVE",
"80 180 CURVE SMOOTH",
"80 80.588 OFFCURVE",
"160.588 0 OFFCURVE",
"260 0 CURVE SMOOTH",
"1180 0 LINE SMOOTH",
"1279.41 0 OFFCURVE",
"1360 80.588 OFFCURVE",
"1360 180 CURVE SMOOTH",
"1360 1100 LINE SMOOTH",
"1360 1199.41 OFFCURVE",
"1279.41 1280 OFFCURVE",
"1180 1280 CURVE SMOOTH"
);
}
);
width = 1440;
}
);
unicode = 004A;
},
{
glyphname = K;
lastChange = "2014-01-05 16:06:22 +0000";
layers = (
{
layerId = "940E2F63-624A-4C3D-A909-721782B4CF41";
name = Regular;
paths = (
{
closed = 1;
nodes = (
"720 1280 LINE SMOOTH",
"620.588 1280 OFFCURVE",
"540 1199.41 OFFCURVE",
"540 1100 CURVE SMOOTH",
"540 820 LINE",
"440 820 LINE",
"440 1100 LINE SMOOTH",
"440 1199.41 OFFCURVE",
"359.412 1280 OFFCURVE",
"260 1280 CURVE SMOOTH",
"160.588 1280 OFFCURVE",
"80 1199.41 OFFCURVE",
"80 1100 CURVE SMOOTH",
"80 180 LINE SMOOTH",
"80 80.588 OFFCURVE",
"160.588 0 OFFCURVE",
"260 0 CURVE SMOOTH",
"359.412 0 OFFCURVE",
"440 80.588 OFFCURVE",
"440 180 CURVE SMOOTH",
"440 460 LINE",
"1000 460 LINE",
"1000 180 LINE SMOOTH",
"1000 80.588 OFFCURVE",
"1080.59 0 OFFCURVE",
"1180 0 CURVE SMOOTH",
"1279.41 0 OFFCURVE",
"1360 80.588 OFFCURVE",
"1360 180 CURVE SMOOTH",
"1360 640 LINE SMOOTH",
"1360 739.412 OFFCURVE",
"1279.41 820 OFFCURVE",
"1180 820 CURVE SMOOTH",
"900 820 LINE",
"900 920 LINE",
"1180 920 LINE SMOOTH",
"1279.41 920 OFFCURVE",
"1360 1000.59 OFFCURVE",
"1360 1100 CURVE SMOOTH",
"1360 1199.41 OFFCURVE",
"1279.41 1280 OFFCURVE",
"1180 1280 CURVE SMOOTH"
);
}
);
width = 1440;
}
);
unicode = 004B;
},
{
glyphname = L;
lastChange = "2014-01-05 16:06:22 +0000";
layers = (
{
layerId = "940E2F63-624A-4C3D-A909-721782B4CF41";
name = Regular;
paths = (
{
closed = 1;
nodes = (
"160.588 1280 OFFCURVE",
"80 1199.41 OFFCURVE",
"80 1100 CURVE SMOOTH",
"80 180 LINE SMOOTH",
"80 80.588 OFFCURVE",
"160.588 0 OFFCURVE",
"260 0 CURVE SMOOTH",
"1180 0 LINE SMOOTH",
"1279.41 0 OFFCURVE",
"1360 80.588 OFFCURVE",
"1360 180 CURVE SMOOTH",
"1360 279.412 OFFCURVE",
"1279.41 360 OFFCURVE",
"1180 360 CURVE SMOOTH",
"440 360 LINE",
"440 1100 LINE SMOOTH",
"440 1199.41 OFFCURVE",
"359.412 1280 OFFCURVE",
"260 1280 CURVE SMOOTH"
);
}
);
width = 1440;
}
);
unicode = 004C;
},
{
glyphname = M;
lastChange = "2014-01-05 16:06:22 +0000";
layers = (
{
layerId = "940E2F63-624A-4C3D-A909-721782B4CF41";
name = Regular;
paths = (
{
closed = 1;
nodes = (
"260 1280 LINE SMOOTH",
"160.588 1280 OFFCURVE",
"80 1199.41 OFFCURVE",
"80 1100 CURVE SMOOTH",
"80 180 LINE SMOOTH",
"80 80.588 OFFCURVE",
"160.588 0 OFFCURVE",
"260 0 CURVE SMOOTH",
"359.412 0 OFFCURVE",
"440 80.588 OFFCURVE",
"440 180 CURVE SMOOTH",
"440 920 LINE",
"540 920 LINE",
"540 180 LINE SMOOTH",
"540 80.588 OFFCURVE",
"620.588 0 OFFCURVE",
"720 0 CURVE SMOOTH",
"819.412 0 OFFCURVE",
"900 80.588 OFFCURVE",
"900 180 CURVE SMOOTH",
"900 920 LINE",
"1000 920 LINE",
"1000 180 LINE SMOOTH",
"1000 80.588 OFFCURVE",
"1080.59 0 OFFCURVE",
"1180 0 CURVE SMOOTH",
"1279.41 0 OFFCURVE",
"1360 80.588 OFFCURVE",
"1360 180 CURVE SMOOTH",
"1360 1100 LINE SMOOTH",
"1360 1199.41 OFFCURVE",
"1279.41 1280 OFFCURVE",
"1180 1280 CURVE SMOOTH"
);
}
);
width = 1440;
}
);
unicode = 004D;
},
{
glyphname = N;
lastChange = "2014-01-05 16:06:22 +0000";
layers = (
{
layerId = "940E2F63-624A-4C3D-A909-721782B4CF41";
name = Regular;
paths = (
{
closed = 1;
nodes = (
"1080.59 1280 OFFCURVE",
"1000 1199.41 OFFCURVE",
"1000 1100 CURVE SMOOTH",
"1000 360 LINE",
"900 360 LINE",
"900 1100 LINE SMOOTH",
"900 1199.41 OFFCURVE",
"819.412 1280 OFFCURVE",
"720 1280 CURVE SMOOTH",
"260 1280 LINE SMOOTH",
"160.588 1280 OFFCURVE",
"80 1199.41 OFFCURVE",
"80 1100 CURVE SMOOTH",
"80 180 LINE SMOOTH",
"80 80.588 OFFCURVE",
"160.588 0 OFFCURVE",
"260 0 CURVE SMOOTH",
"359.412 0 OFFCURVE",
"440 80.588 OFFCURVE",
"440 180 CURVE SMOOTH",
"440 920 LINE",
"540 920 LINE",
"540 180 LINE SMOOTH",
"540 80.588 OFFCURVE",
"620.588 0 OFFCURVE",
"720 0 CURVE SMOOTH",
"1180 0 LINE SMOOTH",
"1279.41 0 OFFCURVE",
"1360 80.588 OFFCURVE",
"1360 180 CURVE SMOOTH",
"1360 1100 LINE SMOOTH",
"1360 1199.41 OFFCURVE",
"1279.41 1280 OFFCURVE",
"1180 1280 CURVE SMOOTH"
);
}
);
width = 1440;
}
);
unicode = 004E;
},
{
glyphname = O;
lastChange = "2014-01-05 16:06:22 +0000";
layers = (
{
layerId = "940E2F63-624A-4C3D-A909-721782B4CF41";
name = Regular;
paths = (
{
closed = 1;
nodes = (
"260 1280 LINE SMOOTH",
"160.588 1280 OFFCURVE",
"80 1199.41 OFFCURVE",
"80 1100 CURVE SMOOTH",
"80 180 LINE SMOOTH",
"80 80.588 OFFCURVE",
"160.588 0 OFFCURVE",
"260 0 CURVE SMOOTH",
"1180 0 LINE SMOOTH",
"1279.41 0 OFFCURVE",
"1360 80.588 OFFCURVE",
"1360 180 CURVE SMOOTH",
"1360 1100 LINE SMOOTH",
"1360 1199.41 OFFCURVE",
"1279.41 1280 OFFCURVE",
"1180 1280 CURVE SMOOTH"
);
},
{
closed = 1;
nodes = (
"1000 360 LINE",
"440 360 LINE",
"440 920 LINE",
"1000 920 LINE"
);
}
);
width = 1440;
}
);
unicode = 004F;
},
{
glyphname = P;
lastChange = "2014-01-05 16:06:22 +0000";
layers = (
{
layerId = "940E2F63-624A-4C3D-A909-721782B4CF41";
name = Regular;
paths = (
{
closed = 1;
nodes = (
"260 1280 LINE SMOOTH",
"160.588 1280 OFFCURVE",
"80 1199.41 OFFCURVE",
"80 1100 CURVE SMOOTH",
"80 180 LINE SMOOTH",
"80 80.588 OFFCURVE",
"160.588 0 OFFCURVE",
"260 0 CURVE SMOOTH",
"359.412 0 OFFCURVE",
"440 80.588 OFFCURVE",
"440 180 CURVE SMOOTH",
"440 920 LINE",
"1000 920 LINE",
"1000 820 LINE",
"720 820 LINE SMOOTH",
"620.588 820 OFFCURVE",
"540 739.412 OFFCURVE",
"540 640 CURVE SMOOTH",
"540 540.588 OFFCURVE",
"620.588 460 OFFCURVE",
"720 460 CURVE SMOOTH",
"1180 460 LINE SMOOTH",
"1279.41 460 OFFCURVE",
"1360 540.588 OFFCURVE",
"1360 640 CURVE SMOOTH",
"1360 1100 LINE SMOOTH",
"1360 1199.41 OFFCURVE",
"1279.41 1280 OFFCURVE",
"1180 1280 CURVE SMOOTH"
);
}
);
width = 1440;
}
);
unicode = 0050;
},
{
glyphname = Q;
lastChange = "2014-01-05 16:06:22 +0000";
layers = (
{
layerId = "940E2F63-624A-4C3D-A909-721782B4CF41";
name = Regular;
paths = (
{
closed = 1;
nodes = (
"260 1280 LINE SMOOTH",
"160.588 1280 OFFCURVE",
"80 1199.41 OFFCURVE",
"80 1100 CURVE SMOOTH",
"80 180 LINE SMOOTH",
"80 80.588 OFFCURVE",
"160.588 0 OFFCURVE",
"260 0 CURVE SMOOTH",
"1180 0 LINE SMOOTH",
"1279.41 0 OFFCURVE",
"1360 80.588 OFFCURVE",
"1360 180 CURVE SMOOTH",
"1360 1100 LINE SMOOTH",
"1360 1199.41 OFFCURVE",
"1279.41 1280 OFFCURVE",
"1180 1280 CURVE SMOOTH"
);
},
{
closed = 1;
nodes = (
"1000 360 LINE",
"900 360 LINE",
"900 640 LINE SMOOTH",
"900 739.412 OFFCURVE",
"819.412 820 OFFCURVE",
"720 820 CURVE SMOOTH",
"620.588 820 OFFCURVE",
"540 739.412 OFFCURVE",
"540 640 CURVE SMOOTH",
"540 360 LINE",
"440 360 LINE",
"440 920 LINE",
"1000 920 LINE"
);
}
);
width = 1440;
}
);
unicode = 0051;
},
{
glyphname = R;
lastChange = "2014-01-05 16:06:22 +0000";
layers = (
{
layerId = "940E2F63-624A-4C3D-A909-721782B4CF41";
name = Regular;
paths = (
{
closed = 1;
nodes = (
"260 1280 LINE SMOOTH",
"160.588 1280 OFFCURVE",
"80 1199.41 OFFCURVE",
"80 1100 CURVE SMOOTH",
"80 180 LINE SMOOTH",
"80 80.588 OFFCURVE",
"160.588 0 OFFCURVE",
"260 0 CURVE SMOOTH",
"359.412 0 OFFCURVE",
"440 80.588 OFFCURVE",
"440 180 CURVE SMOOTH",
"440 920 LINE",
"1000 920 LINE",
"1000 820 LINE",
"720 820 LINE SMOOTH",
"620.588 820 OFFCURVE",
"540 739.412 OFFCURVE",
"540 640 CURVE SMOOTH",
"540 180 LINE SMOOTH",
"540 80.588 OFFCURVE",
"620.588 0 OFFCURVE",
"720 0 CURVE SMOOTH",
"1180 0 LINE SMOOTH",
"1279.41 0 OFFCURVE",
"1360 80.588 OFFCURVE",
"1360 180 CURVE SMOOTH",
"1360 279.412 OFFCURVE",
"1279.41 360 OFFCURVE",
"1180 360 CURVE SMOOTH",
"900 360 LINE",
"900 460 LINE",
"1180 460 LINE SMOOTH",
"1279.41 460 OFFCURVE",
"1360 540.588 OFFCURVE",
"1360 640 CURVE SMOOTH",
"1360 1100 LINE SMOOTH",
"1360 1199.41 OFFCURVE",
"1279.41 1280 OFFCURVE",
"1180 1280 CURVE SMOOTH"
);
}
);
width = 1440;
}
);
unicode = 0052;
},
{
glyphname = T;
lastChange = "2014-01-05 16:06:22 +0000";
layers = (
{
layerId = "940E2F63-624A-4C3D-A909-721782B4CF41";
name = Regular;
paths = (
{
closed = 1;
nodes = (
"260 1280 LINE SMOOTH",
"160.588 1280 OFFCURVE",
"80 1199.41 OFFCURVE",
"80 1100 CURVE SMOOTH",
"80 1000.59 OFFCURVE",
"160.588 920 OFFCURVE",
"260 920 CURVE SMOOTH",
"540 920 LINE",
"540 180 LINE SMOOTH",
"540 80.588 OFFCURVE",
"620.588 0 OFFCURVE",
"720 0 CURVE SMOOTH",
"819.412 0 OFFCURVE",
"900 80.588 OFFCURVE",
"900 180 CURVE SMOOTH",
"900 920 LINE",
"1180 920 LINE SMOOTH",
"1279.41 920 OFFCURVE",
"1360 1000.59 OFFCURVE",
"1360 1100 CURVE SMOOTH",
"1360 1199.41 OFFCURVE",
"1279.41 1280 OFFCURVE",
"1180 1280 CURVE SMOOTH"
);
}
);
width = 1440;
}
);
unicode = 0054;
},
{
glyphname = V;
lastChange = "2014-01-05 16:06:22 +0000";
layers = (
{
layerId = "940E2F63-624A-4C3D-A909-721782B4CF41";
name = Regular;
paths = (
{
closed = 1;
nodes = (
"1080.59 1280 OFFCURVE",
"1000 1199.41 OFFCURVE",
"1000 1100 CURVE SMOOTH",
"1000 820 LINE",
"720 820 LINE SMOOTH",
"620.588 820 OFFCURVE",
"540 739.412 OFFCURVE",
"540 640 CURVE SMOOTH",
"540 360 LINE",
"440 360 LINE",
"440 1100 LINE SMOOTH",
"440 1199.41 OFFCURVE",
"359.412 1280 OFFCURVE",
"260 1280 CURVE SMOOTH",
"160.588 1280 OFFCURVE",
"80 1199.41 OFFCURVE",
"80 1100 CURVE SMOOTH",
"80 180 LINE SMOOTH",
"80 80.588 OFFCURVE",
"160.588 0 OFFCURVE",
"260 0 CURVE SMOOTH",
"720 0 LINE SMOOTH",
"819.412 0 OFFCURVE",
"900 80.588 OFFCURVE",
"900 180 CURVE SMOOTH",
"900 460 LINE",
"1180 460 LINE SMOOTH",
"1279.41 460 OFFCURVE",
"1360 540.588 OFFCURVE",
"1360 640 CURVE SMOOTH",
"1360 1100 LINE SMOOTH",
"1360 1199.41 OFFCURVE",
"1279.41 1280 OFFCURVE",
"1180 1280 CURVE SMOOTH"
);
}
);
width = 1440;
}
);
unicode = 0056;
},
{
glyphname = X;
lastChange = "2014-01-05 16:06:22 +0000";
layers = (
{
layerId = "940E2F63-624A-4C3D-A909-721782B4CF41";
name = Regular;
paths = (
{
closed = 1;
nodes = (
"260 1280 LINE SMOOTH",
"160.588 1280 OFFCURVE",
"80 1199.41 OFFCURVE",
"80 1100 CURVE SMOOTH",
"80 640 LINE SMOOTH",
"80 540.588 OFFCURVE",
"160.588 460 OFFCURVE",
"260 460 CURVE SMOOTH",
"359.412 460 OFFCURVE",
"440 540.588 OFFCURVE",
"440 640 CURVE SMOOTH",
"440 920 LINE",
"540 920 LINE",
"540 360 LINE",
"260 360 LINE SMOOTH",
"160.588 360 OFFCURVE",
"80 279.412 OFFCURVE",
"80 180 CURVE SMOOTH",
"80 80.588 OFFCURVE",
"160.588 0 OFFCURVE",
"260 0 CURVE SMOOTH",
"1180 0 LINE SMOOTH",
"1279.41 0 OFFCURVE",
"1360 80.588 OFFCURVE",
"1360 180 CURVE SMOOTH",
"1360 640 LINE SMOOTH",
"1360 739.412 OFFCURVE",
"1279.41 820 OFFCURVE",
"1180 820 CURVE SMOOTH",
"1080.59 820 OFFCURVE",
"1000 739.412 OFFCURVE",
"1000 640 CURVE SMOOTH",
"1000 360 LINE",
"900 360 LINE",
"900 920 LINE",
"1180 920 LINE SMOOTH",
"1279.41 920 OFFCURVE",
"1360 1000.59 OFFCURVE",
"1360 1100 CURVE SMOOTH",
"1360 1199.41 OFFCURVE",
"1279.41 1280 OFFCURVE",
"1180 1280 CURVE SMOOTH"
);
}
);
width = 1440;
}
);
unicode = 0058;
},
{
glyphname = Y;
lastChange = "2014-01-05 16:06:22 +0000";
layers = (
{
layerId = "940E2F63-624A-4C3D-A909-721782B4CF41";
name = Regular;
paths = (
{
closed = 1;
nodes = (
"1080.59 1280 OFFCURVE",
"1000 1199.41 OFFCURVE",
"1000 1100 CURVE SMOOTH",
"1000 820 LINE",
"440 820 LINE",
"440 1100 LINE SMOOTH",
"440 1199.41 OFFCURVE",
"359.412 1280 OFFCURVE",
"260 1280 CURVE SMOOTH",
"160.588 1280 OFFCURVE",
"80 1199.41 OFFCURVE",
"80 1100 CURVE SMOOTH",
"80 640 LINE SMOOTH",
"80 540.588 OFFCURVE",
"160.588 460 OFFCURVE",
"260 460 CURVE SMOOTH",
"1000 460 LINE",
"1000 360 LINE",
"260 360 LINE SMOOTH",
"160.588 360 OFFCURVE",
"80 279.412 OFFCURVE",
"80 180 CURVE SMOOTH",
"80 80.588 OFFCURVE",
"160.588 0 OFFCURVE",
"260 0 CURVE SMOOTH",
"1180 0 LINE SMOOTH",
"1279.41 0 OFFCURVE",
"1360 80.588 OFFCURVE",
"1360 180 CURVE SMOOTH",
"1360 1100 LINE SMOOTH",
"1360 1199.41 OFFCURVE",
"1279.41 1280 OFFCURVE",
"1180 1280 CURVE SMOOTH"
);
}
);
width = 1440;
}
);
unicode = 0059;
},
{
glyphname = zero;
lastChange = "2014-01-05 16:06:22 +0000";
layers = (
{
components = (
{
name = O;
transform = "{1, 0, 0, 1, 0, 0}";
}
);
layerId = "940E2F63-624A-4C3D-A909-721782B4CF41";
name = Regular;
paths = (
{
closed = 1;
nodes = (
"620.588 820 OFFCURVE",
"540 739.412 OFFCURVE",
"540 640 CURVE SMOOTH",
"540 540.588 OFFCURVE",
"620.588 460 OFFCURVE",
"720 460 CURVE SMOOTH",
"819.412 460 OFFCURVE",
"900 540.588 OFFCURVE",
"900 640 CURVE SMOOTH",
"900 739.412 OFFCURVE",
"819.412 820 OFFCURVE",
"720 820 CURVE SMOOTH"
);
}
);
width = 1440;
}
);
unicode = 0030;
},
{
glyphname = one;
lastChange = "2014-01-05 16:06:22 +0000";
layers = (
{
layerId = "940E2F63-624A-4C3D-A909-721782B4CF41";
name = Regular;
paths = (
{
closed = 1;
nodes = (
"260 1280 LINE SMOOTH",
"160.588 1280 OFFCURVE",
"80 1199.41 OFFCURVE",
"80 1100 CURVE SMOOTH",
"80 1000.59 OFFCURVE",
"160.588 920 OFFCURVE",
"260 920 CURVE SMOOTH",
"540 920 LINE",
"540 360 LINE",
"260 360 LINE SMOOTH",
"160.588 360 OFFCURVE",
"80 279.412 OFFCURVE",
"80 180 CURVE SMOOTH",
"80 80.588 OFFCURVE",
"160.588 0 OFFCURVE",
"260 0 CURVE SMOOTH",
"1180 0 LINE SMOOTH",
"1279.41 0 OFFCURVE",
"1360 80.588 OFFCURVE",
"1360 180 CURVE SMOOTH",
"1360 279.412 OFFCURVE",
"1279.41 360 OFFCURVE",
"1180 360 CURVE SMOOTH",
"900 360 LINE",
"900 1100 LINE SMOOTH",
"900 1199.41 OFFCURVE",
"819.412 1280 OFFCURVE",
"720 1280 CURVE SMOOTH"
);
}
);
width = 1440;
}
);
unicode = 0031;
},
{
glyphname = seven;
lastChange = "2014-01-05 16:06:22 +0000";
layers = (
{
layerId = "940E2F63-624A-4C3D-A909-721782B4CF41";
name = Regular;
paths = (
{
closed = 1;
nodes = (
"260 1280 LINE SMOOTH",
"160.588 1280 OFFCURVE",
"80 1199.41 OFFCURVE",
"80 1100 CURVE SMOOTH",
"80 1000.59 OFFCURVE",
"160.588 920 OFFCURVE",
"260 920 CURVE SMOOTH",
"1000 920 LINE",
"1000 820 LINE",
"720 820 LINE SMOOTH",
"620.588 820 OFFCURVE",
"540 739.412 OFFCURVE",
"540 640 CURVE SMOOTH",
"540 180 LINE SMOOTH",
"540 80.588 OFFCURVE",
"620.588 0 OFFCURVE",
"720 0 CURVE SMOOTH",
"819.412 0 OFFCURVE",
"900 80.588 OFFCURVE",
"900 180 CURVE SMOOTH",
"900 460 LINE",
"1180 460 LINE SMOOTH",
"1279.41 460 OFFCURVE",
"1360 540.588 OFFCURVE",
"1360 640 CURVE SMOOTH",
"1360 1100 LINE SMOOTH",
"1360 1199.41 OFFCURVE",
"1279.41 1280 OFFCURVE",
"1180 1280 CURVE SMOOTH"
);
}
);
width = 1440;
}
);
unicode = 0037;
},
{
glyphname = eight;
lastChange = "2014-01-05 16:06:22 +0000";
layers = (
{
layerId = "940E2F63-624A-4C3D-A909-721782B4CF41";
name = Regular;
paths = (
{
closed = 1;
nodes = (
"260 1280 LINE SMOOTH",
"160.588 1280 OFFCURVE",
"80 1199.41 OFFCURVE",
"80 1100 CURVE SMOOTH",
"80 180 LINE SMOOTH",
"80 80.588 OFFCURVE",
"160.588 0 OFFCURVE",
"260 0 CURVE SMOOTH",
"1180 0 LINE SMOOTH",
"1279.41 0 OFFCURVE",
"1360 80.588 OFFCURVE",
"1360 180 CURVE SMOOTH",
"1360 1100 LINE SMOOTH",
"1360 1199.41 OFFCURVE",
"1279.41 1280 OFFCURVE",
"1180 1280 CURVE SMOOTH"
);
},
{
closed = 1;
nodes = (
"1000 360 LINE",
"440 360 LINE",
"440 460 LINE",
"1000 460 LINE"
);
},
{
closed = 1;
nodes = (
"1000 820 LINE",
"440 820 LINE",
"440 920 LINE",
"1000 920 LINE"
);
}
);
width = 1440;
}
);
unicode = 0038;
},
{
glyphname = asterisk;
lastChange = "2014-01-05 16:06:22 +0000";
layers = (
{
components = (
{
name = plus;
transform = "{1, 0, 0, 1, 0, 0}";
}
);
layerId = "940E2F63-624A-4C3D-A909-721782B4CF41";
name = Regular;
paths = (
{
closed = 1;
nodes = (
"1080.59 1280 OFFCURVE",
"1000 1199.41 OFFCURVE",
"1000 1100 CURVE SMOOTH",
"1000 1000.59 OFFCURVE",
"1080.59 920 OFFCURVE",
"1180 920 CURVE SMOOTH",
"1279.41 920 OFFCURVE",
"1360 1000.59 OFFCURVE",
"1360 1100 CURVE SMOOTH",
"1360 1199.41 OFFCURVE",
"1279.41 1280 OFFCURVE",
"1180 1280 CURVE SMOOTH"
);
},
{
closed = 1;
nodes = (
"160.588 360 OFFCURVE",
"80 279.412 OFFCURVE",
"80 180 CURVE SMOOTH",
"80 80.588 OFFCURVE",
"160.588 0 OFFCURVE",
"260 0 CURVE SMOOTH",
"359.412 0 OFFCURVE",
"440 80.588 OFFCURVE",
"440 180 CURVE SMOOTH",
"440 279.412 OFFCURVE",
"359.412 360 OFFCURVE",
"260 360 CURVE SMOOTH"
);
},
{
closed = 1;
nodes = (
"160.588 1280 OFFCURVE",
"80 1199.41 OFFCURVE",
"80 1100 CURVE SMOOTH",
"80 1000.59 OFFCURVE",
"160.588 920 OFFCURVE",
"260 920 CURVE SMOOTH",
"359.412 920 OFFCURVE",
"440 1000.59 OFFCURVE",
"440 1100 CURVE SMOOTH",
"440 1199.41 OFFCURVE",
"359.412 1280 OFFCURVE",
"260 1280 CURVE SMOOTH"
);
},
{
closed = 1;
nodes = (
"1077.58 360 OFFCURVE",
"1000 282.419 OFFCURVE",
"1000 186.716 CURVE SMOOTH",
"1000 91.012 OFFCURVE",
"1077.58 13.431 OFFCURVE",
"1173.28 13.431 CURVE SMOOTH",
"1268.99 13.431 OFFCURVE",
"1346.57 91.012 OFFCURVE",
"1346.57 186.716 CURVE SMOOTH",
"1346.57 282.419 OFFCURVE",
"1268.99 360 OFFCURVE",
"1173.28 360 CURVE SMOOTH"
);
}
);
width = 1440;
}
);
unicode = 002A;
},
{
glyphname = backslash;
lastChange = "2014-01-05 16:06:22 +0000";
layers = (
{
layerId = "940E2F63-624A-4C3D-A909-721782B4CF41";
name = Regular;
paths = (
{
closed = 1;
nodes = (
"1080.59 1280 OFFCURVE",
"1000 1199.41 OFFCURVE",
"1000 1100 CURVE SMOOTH",
"1000 180 LINE SMOOTH",
"1000 80.588 OFFCURVE",
"1080.59 0 OFFCURVE",
"1180 0 CURVE SMOOTH",
"1279.41 0 OFFCURVE",
"1360 80.588 OFFCURVE",
"1360 180 CURVE SMOOTH",
"1360 1100 LINE SMOOTH",
"1360 1199.41 OFFCURVE",
"1279.41 1280 OFFCURVE",
"1180 1280 CURVE SMOOTH"
);
},
{
closed = 1;
nodes = (
"160.588 1280 OFFCURVE",
"80 1199.41 OFFCURVE",
"80 1100 CURVE SMOOTH",
"80 180 LINE SMOOTH",
"80 80.588 OFFCURVE",
"160.588 0 OFFCURVE",
"260 0 CURVE SMOOTH",
"359.412 0 OFFCURVE",
"440 80.588 OFFCURVE",
"440 180 CURVE SMOOTH",
"440 1100 LINE SMOOTH",
"440 1199.41 OFFCURVE",
"359.412 1280 OFFCURVE",
"260 1280 CURVE SMOOTH"
);
},
{
closed = 1;
nodes = (
"620.588 1280 OFFCURVE",
"540 1199.41 OFFCURVE",
"540 1100 CURVE SMOOTH",
"540 180 LINE SMOOTH",
"540 80.588 OFFCURVE",
"620.588 0 OFFCURVE",
"720 0 CURVE SMOOTH",
"819.412 0 OFFCURVE",
"900 80.588 OFFCURVE",
"900 180 CURVE SMOOTH",
"900 1100 LINE SMOOTH",
"900 1199.41 OFFCURVE",
"819.412 1280 OFFCURVE",
"720 1280 CURVE SMOOTH"
);
}
);
width = 1440;
}
);
unicode = 005C;
},
{
glyphname = comma;
lastChange = "2014-01-05 16:06:22 +0000";
layers = (
{
layerId = "940E2F63-624A-4C3D-A909-721782B4CF41";
name = Regular;
paths = (
{
closed = 1;
nodes = (
"260 1280 LINE SMOOTH",
"160.588 1280 OFFCURVE",
"80 1199.41 OFFCURVE",
"80 1100 CURVE SMOOTH",
"80 180 LINE SMOOTH",
"80 80.588 OFFCURVE",
"160.588 0 OFFCURVE",
"260 0 CURVE SMOOTH",
"1180 0 LINE SMOOTH",
"1279.41 0 OFFCURVE",
"1360 80.588 OFFCURVE",
"1360 180 CURVE SMOOTH",
"1360 1100 LINE SMOOTH",
"1360 1199.41 OFFCURVE",
"1279.41 1280 OFFCURVE",
"1180 1280 CURVE SMOOTH"
);
}
);
width = 1440;
}
);
unicode = 002C;
},
{
glyphname = ellipsis;
lastChange = "2014-01-05 16:06:22 +0000";
layers = (
{
layerId = "940E2F63-624A-4C3D-A909-721782B4CF41";
name = Regular;
paths = (
{
closed = 1;
nodes = (
"260 1280 LINE SMOOTH",
"160.588 1280 OFFCURVE",
"80 1199.41 OFFCURVE",
"80 1100 CURVE SMOOTH",
"80 1000.59 OFFCURVE",
"160.588 920 OFFCURVE",
"260 920 CURVE SMOOTH",
"1180 920 LINE SMOOTH",
"1279.41 920 OFFCURVE",
"1360 1000.59 OFFCURVE",
"1360 1100 CURVE SMOOTH",
"1360 1199.41 OFFCURVE",
"1279.41 1280 OFFCURVE",
"1180 1280 CURVE SMOOTH"
);
},
{
closed = 1;
nodes = (
"160.588 360 OFFCURVE",
"80 279.412 OFFCURVE",
"80 180 CURVE SMOOTH",
"80 80.588 OFFCURVE",
"160.588 0 OFFCURVE",
"260 0 CURVE SMOOTH",
"359.412 0 OFFCURVE",
"440 80.588 OFFCURVE",
"440 180 CURVE SMOOTH",
"440 279.412 OFFCURVE",
"359.412 360 OFFCURVE",
"260 360 CURVE SMOOTH"
);
},
{
closed = 1;
nodes = (
"620.588 360 OFFCURVE",
"540 279.412 OFFCURVE",
"540 180 CURVE SMOOTH",
"540 80.588 OFFCURVE",
"620.588 0 OFFCURVE",
"720 0 CURVE SMOOTH",
"819.412 0 OFFCURVE",
"900 80.588 OFFCURVE",
"900 180 CURVE SMOOTH",
"900 279.412 OFFCURVE",
"819.412 360 OFFCURVE",
"720 360 CURVE SMOOTH"
);
},
{
closed = 1;
nodes = (
"260 820 LINE SMOOTH",
"160.588 820 OFFCURVE",
"80 739.412 OFFCURVE",
"80 640 CURVE SMOOTH",
"80 540.588 OFFCURVE",
"160.588 460 OFFCURVE",
"260 460 CURVE SMOOTH",
"1180 460 LINE SMOOTH",
"1279.41 460 OFFCURVE",
"1360 540.588 OFFCURVE",
"1360 640 CURVE SMOOTH",
"1360 739.412 OFFCURVE",
"1279.41 820 OFFCURVE",
"1180 820 CURVE SMOOTH"
);
},
{
closed = 1;
nodes = (
"1080.59 360 OFFCURVE",
"1000 279.412 OFFCURVE",
"1000 180 CURVE SMOOTH",
"1000 80.588 OFFCURVE",
"1080.59 0 OFFCURVE",
"1180 0 CURVE SMOOTH",
"1279.41 0 OFFCURVE",
"1360 80.588 OFFCURVE",
"1360 180 CURVE SMOOTH",
"1360 279.412 OFFCURVE",
"1279.41 360 OFFCURVE",
"1180 360 CURVE SMOOTH"
);
}
);
width = 1440;
}
);
unicode = 2026;
},
{
glyphname = exclam;
lastChange = "2014-01-05 16:06:22 +0000";
layers = (
{
layerId = "940E2F63-624A-4C3D-A909-721782B4CF41";
name = Regular;
paths = (
{
closed = 1;
nodes = (
"1080.59 1280 OFFCURVE",
"1000 1199.41 OFFCURVE",
"1000 1100 CURVE SMOOTH",
"1000 640.005 LINE SMOOTH",
"1000 540.588 OFFCURVE",
"1080.59 460 OFFCURVE",
"1180 460 CURVE SMOOTH",
"1279.41 460 OFFCURVE",
"1360 540.588 OFFCURVE",
"1360 640 CURVE SMOOTH",
"1360 1100 LINE SMOOTH",
"1360 1199.41 OFFCURVE",
"1279.41 1280 OFFCURVE",
"1180 1280 CURVE SMOOTH"
);
},
{
closed = 1;
nodes = (
"160.588 360 OFFCURVE",
"80 279.412 OFFCURVE",
"80 180 CURVE SMOOTH",
"80 80.588 OFFCURVE",
"160.588 0 OFFCURVE",
"260 0 CURVE SMOOTH",
"359.412 0 OFFCURVE",
"440 80.588 OFFCURVE",
"440 180 CURVE SMOOTH",
"440 279.412 OFFCURVE",
"359.412 360 OFFCURVE",
"260 360 CURVE SMOOTH"
);
},
{
closed = 1;
nodes = (
"620.588 360 OFFCURVE",
"540 279.412 OFFCURVE",
"540 180 CURVE SMOOTH",
"540 80.588 OFFCURVE",
"620.588 0 OFFCURVE",
"720 0 CURVE SMOOTH",
"819.412 0 OFFCURVE",
"900 80.588 OFFCURVE",
"900 180 CURVE SMOOTH",
"900 279.412 OFFCURVE",
"819.412 360 OFFCURVE",
"720 360 CURVE SMOOTH"
);
},
{
closed = 1;
nodes = (
"160.588 1280 OFFCURVE",
"80 1199.41 OFFCURVE",
"80 1100 CURVE SMOOTH",
"80 640 LINE SMOOTH",
"80 540.588 OFFCURVE",
"160.588 460 OFFCURVE",
"260 460 CURVE SMOOTH",
"359.412 460 OFFCURVE",
"440 540.588 OFFCURVE",
"440 640 CURVE SMOOTH",
"440 1100 LINE SMOOTH",
"440 1199.41 OFFCURVE",
"359.412 1280 OFFCURVE",
"260 1280 CURVE SMOOTH"
);
},
{
closed = 1;
nodes = (
"1080.59 360 OFFCURVE",
"1000 279.412 OFFCURVE",
"1000 180 CURVE SMOOTH",
"1000 80.588 OFFCURVE",
"1080.59 0 OFFCURVE",
"1180 0 CURVE SMOOTH",
"1279.41 0 OFFCURVE",
"1360 80.588 OFFCURVE",
"1360 180 CURVE SMOOTH",
"1360 279.412 OFFCURVE",
"1279.41 360 OFFCURVE",
"1180 360 CURVE SMOOTH"
);
},
{
closed = 1;
nodes = (
"620.588 1280 OFFCURVE",
"540 1199.41 OFFCURVE",
"540 1100 CURVE SMOOTH",
"540 640 LINE SMOOTH",
"540 540.588 OFFCURVE",
"620.588 460 OFFCURVE",
"720 460 CURVE SMOOTH",
"819.412 460 OFFCURVE",
"900 540.588 OFFCURVE",
"900 640 CURVE SMOOTH",
"900 1100 LINE SMOOTH",
"900 1199.41 OFFCURVE",
"819.412 1280 OFFCURVE",
"720 1280 CURVE SMOOTH"
);
}
);
width = 1440;
}
);
unicode = 0021;
},
{
color = 1;
glyphname = numbersign;
lastChange = "2014-01-05 16:06:22 +0000";
layers = (
{
layerId = "940E2F63-624A-4C3D-A909-721782B4CF41";
name = Regular;
paths = (
{
closed = 1;
nodes = (
"260 1280 LINE SMOOTH",
"160.588 1280 OFFCURVE",
"80 1199.41 OFFCURVE",
"80 1100 CURVE SMOOTH",
"80 180 LINE SMOOTH",
"80 80.588 OFFCURVE",
"160.588 0 OFFCURVE",
"260 0 CURVE SMOOTH",
"1180 0 LINE SMOOTH",
"1279.41 0 OFFCURVE",
"1360 80.588 OFFCURVE",
"1360 180 CURVE SMOOTH",
"1360 1100 LINE SMOOTH",
"1360 1199.41 OFFCURVE",
"1279.41 1280 OFFCURVE",
"1180 1280 CURVE SMOOTH"
);
},
{
closed = 1;
nodes = (
"540 360 LINE",
"440 360 LINE",
"440 460 LINE",
"540 460 LINE"
);
},
{
closed = 1;
nodes = (
"540 820 LINE",
"440 820 LINE",
"440 920 LINE",
"540 920 LINE"
);
},
{
closed = 1;
nodes = (
"1000 360 LINE",
"900 360 LINE",
"900 460 LINE",
"1000 460 LINE"
);
},
{
closed = 1;
nodes = (
"1000 820 LINE",
"900 820 LINE",
"900 920 LINE",
"1000 920 LINE"
);
}
);
width = 1440;
}
);
unicode = 0023;
},
{
glyphname = question;
lastChange = "2014-01-05 16:06:22 +0000";
layers = (
{
layerId = "940E2F63-624A-4C3D-A909-721782B4CF41";
name = Regular;
paths = (
{
closed = 1;
nodes = (
"260 1280 LINE SMOOTH",
"160.588 1280 OFFCURVE",
"80 1199.41 OFFCURVE",
"80 1100 CURVE SMOOTH",
"80 1000.59 OFFCURVE",
"160.588 920 OFFCURVE",
"260 920 CURVE SMOOTH",
"1000 920 LINE",
"1000 820 LINE",
"720 820 LINE SMOOTH",
"620.588 820 OFFCURVE",
"540 739.412 OFFCURVE",
"540 640 CURVE SMOOTH",
"540 540.588 OFFCURVE",
"620.588 460 OFFCURVE",
"720 460 CURVE SMOOTH",
"1180 460 LINE SMOOTH",
"1279.41 460 OFFCURVE",
"1360 540.588 OFFCURVE",
"1360 640 CURVE SMOOTH",
"1360 1100 LINE SMOOTH",
"1360 1199.41 OFFCURVE",
"1279.41 1280 OFFCURVE",
"1180 1280 CURVE SMOOTH"
);
},
{
closed = 1;
nodes = (
"620.588 360 OFFCURVE",
"540 279.412 OFFCURVE",
"540 180 CURVE SMOOTH",
"540 80.588 OFFCURVE",
"620.588 0 OFFCURVE",
"720 0 CURVE SMOOTH",
"819.412 0 OFFCURVE",
"900 80.588 OFFCURVE",
"900 180 CURVE SMOOTH",
"900 279.412 OFFCURVE",
"819.412 360 OFFCURVE",
"720 360 CURVE SMOOTH"
);
}
);
width = 1440;
}
);
unicode = 003F;
},
{
glyphname = braceleft;
lastChange = "2014-01-05 16:06:22 +0000";
layers = (
{
layerId = "940E2F63-624A-4C3D-A909-721782B4CF41";
name = Regular;
paths = (
{
closed = 1;
nodes = (
"720 1280 LINE SMOOTH",
"620.588 1280 OFFCURVE",
"540 1199.41 OFFCURVE",
"540 1100 CURVE SMOOTH",
"540 820 LINE",
"260 820 LINE SMOOTH",
"160.588 820 OFFCURVE",
"80 739.412 OFFCURVE",
"80 640 CURVE SMOOTH",
"80 540.588 OFFCURVE",
"160.588 460 OFFCURVE",
"260 460 CURVE SMOOTH",
"540 460 LINE",
"540 180 LINE SMOOTH",
"540 80.588 OFFCURVE",
"620.588 0 OFFCURVE",
"720 0 CURVE SMOOTH",
"1180 0 LINE SMOOTH",
"1279.41 0 OFFCURVE",
"1360 80.588 OFFCURVE",
"1360 180 CURVE SMOOTH",
"1360 279.412 OFFCURVE",
"1279.41 360 OFFCURVE",
"1180 360 CURVE SMOOTH",
"900 360 LINE",
"900 920 LINE",
"1180 920 LINE SMOOTH",
"1279.41 920 OFFCURVE",
"1360 1000.59 OFFCURVE",
"1360 1100 CURVE SMOOTH",
"1360 1199.41 OFFCURVE",
"1279.41 1280 OFFCURVE",
"1180 1280 CURVE SMOOTH"
);
}
);
width = 1440;
}
);
unicode = 007B;
},
{
color = 0;
glyphname = dollar;
lastChange = "2014-01-05 16:06:22 +0000";
layers = (
{
components = (
{
name = S;
transform = "{1, 0, 0, 1, 0, 0}";
}
);
layerId = "940E2F63-624A-4C3D-A909-721782B4CF41";
name = Regular;
paths = (
{
closed = 1;
nodes = (
"540 1280 LINE",
"540 0 LINE",
"900 0 LINE",
"900 1280 LINE"
);
}
);
width = 1440;
}
);
unicode = 0024;
},
{
color = 0;
glyphname = euro;
lastChange = "2014-01-05 16:06:22 +0000";
layers = (
{
components = (
{
name = braceleft;
transform = "{1, 0, 0, 1, 0, 0}";
}
);
layerId = "940E2F63-624A-4C3D-A909-721782B4CF41";
name = Regular;
paths = (
{
closed = 1;
nodes = (
"495 820 LINE",
"495 460 LINE",
"1180 460 LINE SMOOTH",
"1279.41 460 OFFCURVE",
"1360 540.588 OFFCURVE",
"1360 640 CURVE SMOOTH",
"1360 739.412 OFFCURVE",
"1279.41 820 OFFCURVE",
"1180 820 CURVE SMOOTH"
);
}
);
width = 1440;
}
);
unicode = 20AC;
},
{
glyphname = divide;
lastChange = "2014-01-05 16:06:22 +0000";
layers = (
{
layerId = "940E2F63-624A-4C3D-A909-721782B4CF41";
name = Regular;
paths = (
{
closed = 1;
nodes = (
"260 820 LINE SMOOTH",
"160.588 820 OFFCURVE",
"80 739.412 OFFCURVE",
"80 640 CURVE SMOOTH",
"80 540.588 OFFCURVE",
"160.588 460 OFFCURVE",
"260 460 CURVE SMOOTH",
"1180 460 LINE SMOOTH",
"1279.41 460 OFFCURVE",
"1360 540.588 OFFCURVE",
"1360 640 CURVE SMOOTH",
"1360 739.412 OFFCURVE",
"1279.41 820 OFFCURVE",
"1180 820 CURVE SMOOTH"
);
},
{
closed = 1;
nodes = (
"620.588 360 OFFCURVE",
"540 279.412 OFFCURVE",
"540 180 CURVE SMOOTH",
"540 80.588 OFFCURVE",
"620.588 0 OFFCURVE",
"720 0 CURVE SMOOTH",
"819.412 0 OFFCURVE",
"900 80.588 OFFCURVE",
"900 180 CURVE SMOOTH",
"900 279.412 OFFCURVE",
"819.412 360 OFFCURVE",
"720 360 CURVE SMOOTH"
);
},
{
closed = 1;
nodes = (
"620.588 1280 OFFCURVE",
"540 1199.41 OFFCURVE",
"540 1100 CURVE SMOOTH",
"540 1000.59 OFFCURVE",
"620.588 920 OFFCURVE",
"720 920 CURVE SMOOTH",
"819.412 920 OFFCURVE",
"900 1000.59 OFFCURVE",
"900 1100 CURVE SMOOTH",
"900 1199.41 OFFCURVE",
"819.412 1280 OFFCURVE",
"720 1280 CURVE SMOOTH"
);
}
);
width = 1440;
}
);
unicode = 00F7;
},
{
color = 0;
glyphname = percent;
lastChange = "2014-01-05 16:06:22 +0000";
layers = (
{
layerId = "940E2F63-624A-4C3D-A909-721782B4CF41";
name = Regular;
paths = (
{
closed = 1;
nodes = (
"1080.59 1280 OFFCURVE",
"1000 1199.41 OFFCURVE",
"1000 1100 CURVE SMOOTH",
"1000 820 LINE",
"260 820 LINE SMOOTH",
"160.588 820 OFFCURVE",
"80 739.412 OFFCURVE",
"80 640 CURVE SMOOTH",
"80 180 LINE SMOOTH",
"80 80.588 OFFCURVE",
"160.588 0 OFFCURVE",
"260 0 CURVE SMOOTH",
"359.412 0 OFFCURVE",
"440 80.588 OFFCURVE",
"440 180 CURVE SMOOTH",
"440 460 LINE",
"1180 460 LINE SMOOTH",
"1279.41 460 OFFCURVE",
"1360 540.588 OFFCURVE",
"1360 640 CURVE SMOOTH",
"1360 1100 LINE SMOOTH",
"1360 1199.41 OFFCURVE",
"1279.41 1280 OFFCURVE",
"1180 1280 CURVE SMOOTH"
);
},
{
closed = 1;
nodes = (
"720 360 LINE SMOOTH",
"620.588 360 OFFCURVE",
"540 279.41 OFFCURVE",
"540 180 CURVE SMOOTH",
"540 80.59 OFFCURVE",
"620.588 0 OFFCURVE",
"720 0 CURVE SMOOTH",
"1180 0 LINE SMOOTH",
"1279.41 0 OFFCURVE",
"1360 80.59 OFFCURVE",
"1360 180 CURVE SMOOTH",
"1360 279.41 OFFCURVE",
"1279.41 360 OFFCURVE",
"1180 360 CURVE SMOOTH"
);
},
{
closed = 1;
nodes = (
"260 1280 LINE SMOOTH",
"160.588 1280 OFFCURVE",
"80 1199.41 OFFCURVE",
"80 1100 CURVE SMOOTH",
"80 1000.59 OFFCURVE",
"160.588 920 OFFCURVE",
"260 920 CURVE SMOOTH",
"720 920 LINE SMOOTH",
"819.412 920 OFFCURVE",
"900 1000.59 OFFCURVE",
"900 1100 CURVE SMOOTH",
"900 1199.41 OFFCURVE",
"819.412 1280 OFFCURVE",
"720 1280 CURVE SMOOTH"
);
}
);
width = 1440;
}
);
unicode = 0025;
},
{
glyphname = plus;
lastChange = "2014-01-05 16:06:22 +0000";
layers = (
{
layerId = "940E2F63-624A-4C3D-A909-721782B4CF41";
name = Regular;
paths = (
{
closed = 1;
nodes = (
"620.59 1280 OFFCURVE",
"540 1199.41 OFFCURVE",
"540 1100 CURVE SMOOTH",
"540 820 LINE",
"260 820 LINE SMOOTH",
"160.588 820 OFFCURVE",
"80 739.41 OFFCURVE",
"80 640 CURVE SMOOTH",
"80 540.59 OFFCURVE",
"160.588 460 OFFCURVE",
"260 460 CURVE SMOOTH",
"540 460 LINE",
"540 180 LINE SMOOTH",
"540 80.59 OFFCURVE",
"620.59 0 OFFCURVE",
"720 0 CURVE SMOOTH",
"819.41 0 OFFCURVE",
"900 80.59 OFFCURVE",
"900 180 CURVE SMOOTH",
"900 460 LINE",
"1180 460 LINE SMOOTH",
"1279.41 460 OFFCURVE",
"1360 540.59 OFFCURVE",
"1360 640 CURVE SMOOTH",
"1360 739.41 OFFCURVE",
"1279.41 820 OFFCURVE",
"1180 820 CURVE SMOOTH",
"900 820 LINE",
"900 1100 LINE SMOOTH",
"900 1199.41 OFFCURVE",
"819.41 1280 OFFCURVE",
"720 1280 CURVE SMOOTH"
);
}
);
width = 1440;
}
);
unicode = 002B;
},
{
glyphname = ampersand;
lastChange = "2014-01-05 16:06:22 +0000";
layers = (
{
layerId = "940E2F63-624A-4C3D-A909-721782B4CF41";
name = Regular;
paths = (
{
closed = 1;
nodes = (
"720 1280 LINE SMOOTH",
"620.588 1280 OFFCURVE",
"540 1199.41 OFFCURVE",
"540 1100 CURVE SMOOTH",
"540 820 LINE",
"260 820 LINE SMOOTH",
"160.588 820 OFFCURVE",
"80 739.412 OFFCURVE",
"80 640 CURVE SMOOTH",
"80 180 LINE SMOOTH",
"80 80.588 OFFCURVE",
"160.588 0 OFFCURVE",
"260 0 CURVE SMOOTH",
"1180 0 LINE SMOOTH",
"1279.41 0 OFFCURVE",
"1360 80.588 OFFCURVE",
"1360 180 CURVE SMOOTH",
"1360 279.412 OFFCURVE",
"1279.41 360 OFFCURVE",
"1180 360 CURVE SMOOTH",
"440 360 LINE",
"440 460 LINE",
"1180 460 LINE SMOOTH",
"1279.41 460 OFFCURVE",
"1360 540.588 OFFCURVE",
"1360 640 CURVE SMOOTH",
"1360 1100 LINE SMOOTH",
"1360 1199.41 OFFCURVE",
"1279.41 1280 OFFCURVE",
"1180 1280 CURVE SMOOTH"
);
},
{
closed = 1;
nodes = (
"1000 820 LINE",
"900 820 LINE",
"900 920 LINE",
"1000 920 LINE"
);
}
);
width = 1440;
}
);
unicode = 0026;
},
{
glyphname = degree;
lastChange = "2014-01-05 16:06:22 +0000";
layers = (
{
layerId = "940E2F63-624A-4C3D-A909-721782B4CF41";
name = Regular;
paths = (
{
closed = 1;
nodes = (
"1080.59 820 OFFCURVE",
"1000 739.412 OFFCURVE",
"1000 640 CURVE SMOOTH",
"1000 360 LINE",
"720 360 LINE SMOOTH",
"620.588 360 OFFCURVE",
"540 279.412 OFFCURVE",
"540 180 CURVE SMOOTH",
"540 80.588 OFFCURVE",
"620.588 0 OFFCURVE",
"720 0 CURVE SMOOTH",
"1180 0 LINE SMOOTH",
"1279.41 0 OFFCURVE",
"1360 80.588 OFFCURVE",
"1360 180 CURVE SMOOTH",
"1360 640 LINE SMOOTH",
"1360 739.412 OFFCURVE",
"1279.41 820 OFFCURVE",
"1180 820 CURVE SMOOTH"
);
},
{
closed = 1;
nodes = (
"260 1280 LINE SMOOTH",
"160.588 1280 OFFCURVE",
"80 1199.41 OFFCURVE",
"80 1100 CURVE SMOOTH",
"80 640 LINE SMOOTH",
"80 540.588 OFFCURVE",
"160.588 460 OFFCURVE",
"260 460 CURVE SMOOTH",
"720 460 LINE SMOOTH",
"819.412 460 OFFCURVE",
"900 540.588 OFFCURVE",
"900 640 CURVE SMOOTH",
"900 1100 LINE SMOOTH",
"900 1199.41 OFFCURVE",
"819.412 1280 OFFCURVE",
"720 1280 CURVE SMOOTH"
);
},
{
closed = 1;
nodes = (
"540 820 LINE",
"440 820 LINE",
"440 920 LINE",
"540 920 LINE"
);
}
);
width = 1440;
}
);
unicode = 00B0;
},
